{
  "accessors": [
    {
      "bufferView": 2,
      "componentType": 5126,
      "count": 28190,
      "max": [
        0.4712670147418976,
        -0.17417199909687042,
        0.8988649845123291
      ],
      "min": [
        -0.35164400935173035,
        -4.026883125305176,
        -0.5615540146827698
      ],
      "type": "VEC3"
    },
    {
      "bufferView": 2,
      "byteOffset": 338280,
      "componentType": 5126,
      "count": 28190,
      "max": [
        0.9999247789382935,
        1.0,
        0.9999655485153198
      ],
      "min": [
        -0.9998663663864136,
        -0.999898374080658,
        -0.9999822378158569
      ],
      "type": "VEC3"
    },
    {
      "bufferView": 1,
      "componentType": 5126,
      "count": 28190,
      "max": [
        0.9999679923057556,
        0.9988359808921814
      ],
      "min": [
        1.4999999621068127e-05,
        6.600000051548705e-05
      ],
      "type": "VEC2"
    },
    {
      "bufferView": 0,
      "componentType": 5125,
      "count": 153846,
      "type": "SCALAR"
    }
  ],
  "asset": {
    "extras": {
      "author": "Moshe Caine (https://sketchfab.com/mosheca)",
      "license": "CC-BY-4.0 (http://creativecommons.org/licenses/by/4.0/)",
      "source": "https://sketchfab.com/3d-models/african-figurine-12b110832c844b83aa7b74436e919cfe",
      "title": "African Figurine"
    },
    "generator": "Sketchfab-12.68.0",
    "version": "2.0"
  },
  "bufferViews": [
    {
      "buffer": 0,
      "byteLength": 615384,
      "name": "floatBufferViews",
      "target": 34963
    },
    {
      "buffer": 0,
      "byteLength": 225520,
      "byteOffset": 615384,
      "byteStride": 8,
      "name": "floatBufferViews",
      "target": 34962
    },
    {
      "buffer": 0,
      "byteLength": 676560,
      "byteOffset": 840904,
      "byteStride": 12,
      "name": "floatBufferViews",
      "target": 34962
    }
  ],
  "buffers": [
    {
      "byteLength": 1517464,
      "uri": "scene.bin"
    }
  ],
  "images": [
    {
      "uri": "textures/material_0_baseColor.png"
    }
  ],
  "materials": [
    {
      "doubleSided": true,
      "name": "material_0",
      "pbrMetallicRoughness": {
        "baseColorTexture": {
          "index": 0
        },
        "metallicFactor": 0.41463826613935234,
        "roughnessFactor": 0.5914555048079853
      }
    }
  ],
  "meshes": [
    {
      "name": "Object_0",
      "primitives": [
        {
          "attributes": {
            "NORMAL": 1,
            "POSITION": 0,
            "TEXCOORD_0": 2
          },
          "indices": 3,
          "material": 0,
          "mode": 4
        }
      ]
    }
  ],
  "nodes": [
    {
      "children": [
        1
      ],
      "matrix": [
        0.0,
        0.0,
        1.0,
        0.0,
        2.220446049250313e-16,
        -1.0,
        -2.220446049250313e-16,
        0.0,
        1.0,
        4.4408920985006257e-16,
        2.220446049250314e-16,
        0.0,
        -0.1088440865278244,
        -1.9318690299987797,
        2.0407130718231197,
        1.0
      ],
      "name": "Sketchfab_model"
    },
    {
      "children": [
        2
      ],
      "name": "africa.obj.cleaner.materialmerger.gles"
    },
    {
      "mesh": 0,
      "name": "Object_2"
    }
  ],
  "samplers": [
    {
      "magFilter": 9729,
      "minFilter": 9987,
      "wrapS": 10497,
      "wrapT": 10497
    }
  ],
  "scene": 0,
  "scenes": [
    {
      "name": "Sketchfab_Scene",
      "nodes": [
        0
      ]
    }
  ],
  "textures": [
    {
      "sampler": 0,
      "source": 0
    }
  ]
}
