{
  "accessors": [
    {
      "bufferView": 2,
      "componentType": 5126,
      "count": 14976,
      "max": [
        9.048663139343262,
        10.078435897827148,
        17.453781127929688
      ],
      "min": [
        2.167332887649536,
        0.38994601368904114,
        3.694488048553467
      ],
      "type": "VEC3"
    },
    {
      "bufferView": 2,
      "byteOffset": 179712,
      "componentType": 5126,
      "count": 14976,
      "max": [
        0.9999979734420776,
        0.9998745918273926,
        0.9999377727508545
      ],
      "min": [
        -0.999999463558197,
        -0.999717652797699,
        -0.9999894499778748
      ],
      "type": "VEC3"
    },
    {
      "bufferView": 3,
      "componentType": 5126,
      "count": 14976,
      "max": [
        0.9995567202568054,
        0.9999870657920837,
        0.9998869299888611,
        1.0
      ],
      "min": [
        -0.9994271993637085,
        -0.9999477863311768,
        -0.9989137053489685,
        1.0
      ],
      "type": "VEC4"
    },
    {
      "bufferView": 1,
      "componentType": 5126,
      "count": 14976,
      "max": [
        0.9804530143737793,
        0.9709069728851318
      ],
      "min": [
        0.040373001247644424,
        0.029092999175190926
      ],
      "type": "VEC2"
    },
    {
      "bufferView": 0,
      "componentType": 5125,
      "count": 85524,
      "type": "SCALAR"
    }
  ],
  "asset": {
    "extras": {
      "author": "Costi Enrico (https://sketchfab.com/costienrico)",
      "license": "CC-BY-4.0 (http://creativecommons.org/licenses/by/4.0/)",
      "source": "https://sketchfab.com/3d-models/african-souvenir-of-a-wooden-head-dd78147432944bcaa9c6194e241482eb",
      "title": "African souvenir of a wooden head"
    },
    "generator": "Sketchfab-12.68.0",
    "version": "2.0"
  },
  "bufferViews": [
    {
      "buffer": 0,
      "byteLength": 342096,
      "name": "floatBufferViews",
      "target": 34963
    },
    {
      "buffer": 0,
      "byteLength": 119808,
      "byteOffset": 342096,
      "byteStride": 8,
      "name": "floatBufferViews",
      "target": 34962
    },
    {
      "buffer": 0,
      "byteLength": 359424,
      "byteOffset": 461904,
      "byteStride": 12,
      "name": "floatBufferViews",
      "target": 34962
    },
    {
      "buffer": 0,
      "byteLength": 239616,
      "byteOffset": 821328,
      "byteStride": 16,
      "name": "floatBufferViews",
      "target": 34962
    }
  ],
  "buffers": [
    {
      "byteLength": 1060944,
      "uri": "scene.bin"
    }
  ],
  "images": [
    {
      "uri": "textures/unwrapChekcerShaderSG_baseColor.jpeg"
    },
    {
      "uri": "textures/unwrapChekcerShaderSG_metallicRoughness.png"
    },
    {
      "uri": "textures/unwrapChekcerShaderSG_normal.png"
    }
  ],
  "materials": [
    {
      "doubleSided": true,
      "name": "unwrapChekcerShaderSG",
      "normalTexture": {
        "index": 2
      },
      "occlusionTexture": {
        "index": 1,
        "strength": 0.827584046513525
      },
      "pbrMetallicRoughness": {
        "baseColorTexture": {
          "index": 0
        },
        "metallicFactor": 0.7425701710345629,
        "metallicRoughnessTexture": {
          "index": 1
        }
      }
    }
  ],
  "meshes": [
    {
      "name": "defaultMaterial",
      "primitives": [
        {
          "attributes": {
            "NORMAL": 1,
            "POSITION": 0,
            "TANGENT": 2,
            "TEXCOORD_0": 3
          },
          "indices": 4,
          "material": 0,
          "mode": 4
        }
      ]
    }
  ],
  "nodes": [
    {
      "children": [
        1
      ],
      "matrix": [
        1.0,
        0.0,
        0.0,
        0.0,
        0.0,
        -1.0,
        -4.440892098500626e-16,
        0.0,
        0.0,
        4.440892098500626e-16,
        -1.0,
        0.0,
        0.0,
        -5.33994817733765,
        15.808331489562987,
        1.0
      ],
      "name": "Sketchfab_model"
    },
    {
      "children": [
        2
      ],
      "matrix": [
        1.0,
        0.0,
        0.0,
        0.0,
        0.0,
        -4.371139006309477e-08,
        0.999999999999999,
        0.0,
        0.0,
        -0.999999999999999,
        -4.371139006309477e-08,
        0.0,
        0.0,
        0.0,
        0.0,
        1.0
      ],
      "name": "Collada visual scene group"
    },
    {
      "children": [
        3
      ],
      "name": "Mesh"
    },
    {
      "mesh": 0,
      "name": "defaultMaterial"
    }
  ],
  "samplers": [
    {
      "magFilter": 9729,
      "minFilter": 9987,
      "wrapS": 10497,
      "wrapT": 10497
    }
  ],
  "scene": 0,
  "scenes": [
    {
      "name": "Sketchfab_Scene",
      "nodes": [
        0
      ]
    }
  ],
  "textures": [
    {
      "sampler": 0,
      "source": 0
    },
    {
      "sampler": 0,
      "source": 1
    },
    {
      "sampler": 0,
      "source": 2
    }
  ]
}
