{
  "accessors": [
    {
      "bufferView": 2,
      "componentType": 5126,
      "count": 6302,
      "max": [
        1.0049400329589844,
        1.0049400329589844,
        1.089769959449768
      ],
      "min": [
        -1.0049400329589844,
        -1.0049400329589844,
        -1.0
      ],
      "type": "VEC3"
    },
    {
      "bufferView": 2,
      "byteOffset": 75624,
      "componentType": 5126,
      "count": 6302,
      "max": [
        1.0,
        1.0,
        1.0
      ],
      "min": [
        -1.0,
        -1.0,
        -1.0
      ],
      "type": "VEC3"
    },
    {
      "bufferView": 1,
      "componentType": 5126,
      "count": 6302,
      "max": [
        0.9948199987411499,
        0.7828400135040283
      ],
      "min": [
        0.057840000838041306,
        0.07576999813318253
      ],
      "type": "VEC2"
    },
    {
      "bufferView": 0,
      "componentType": 5125,
      "count": 34944,
      "type": "SCALAR"
    },
    {
      "bufferView": 2,
      "byteOffset": 151248,
      "componentType": 5126,
      "count": 585,
      "max": [
        0.4776900112628937,
        0.4776900112628937,
        0.03229999914765358
      ],
      "min": [
        -0.4776900112628937,
        -0.4776900112628937,
        0.005489999894052744
      ],
      "type": "VEC3"
    },
    {
      "bufferView": 2,
      "byteOffset": 158268,
      "componentType": 5126,
      "count": 585,
      "max": [
        0.9999955296516418,
        0.9999955296516418,
        0.9998221397399902
      ],
      "min": [
        -0.9999955296516418,
        -0.9999955296516418,
        -0.8533862233161926
      ],
      "type": "VEC3"
    },
    {
      "bufferView": 1,
      "byteOffset": 50416,
      "componentType": 5126,
      "count": 585,
      "max": [
        0.8217999935150146,
        0.5913500189781189
      ],
      "min": [
        0.7857400178909302,
        0.20029999315738678
      ],
      "type": "VEC2"
    },
    {
      "bufferView": 0,
      "byteOffset": 139776,
      "componentType": 5125,
      "count": 3072,
      "type": "SCALAR"
    },
    {
      "bufferView": 2,
      "byteOffset": 165288,
      "componentType": 5126,
      "count": 9984,
      "max": [
        59.89971923828125,
        59.80051040649414,
        0.9958400130271912
      ],
      "min": [
        -59.89971923828125,
        -59.80051040649414,
        0.0041600000113248825
      ],
      "type": "VEC3"
    },
    {
      "bufferView": 2,
      "byteOffset": 285096,
      "componentType": 5126,
      "count": 9984,
      "max": [
        0.5011085271835327,
        0.502778172492981,
        0.9999961853027344
      ],
      "min": [
        -0.5011085271835327,
        -0.502778172492981,
        -0.9999961853027344
      ],
      "type": "VEC3"
    },
    {
      "bufferView": 1,
      "byteOffset": 55096,
      "componentType": 5126,
      "count": 9984,
      "max": [
        0.9538400173187256,
        0.5786899924278259
      ],
      "min": [
        0.6538400053977966,
        0.27869001030921936
      ],
      "type": "VEC2"
    },
    {
      "bufferView": 0,
      "byteOffset": 152064,
      "componentType": 5125,
      "count": 15840,
      "type": "SCALAR"
    }
  ],
  "asset": {
    "extras": {
      "author": "tykrastagames (https://sketchfab.com/tykrastagames)",
      "license": "CC-BY-4.0 (http://creativecommons.org/licenses/by/4.0/)",
      "source": "https://sketchfab.com/3d-models/djembe-african-instrument-c05369adb63b41968de1cb242c22e51d",
      "title": "Djembe ( African Instrument )"
    },
    "generator": "Sketchfab-12.68.0",
    "version": "2.0"
  },
  "bufferViews": [
    {
      "buffer": 0,
      "byteLength": 215424,
      "name": "floatBufferViews",
      "target": 34963
    },
    {
      "buffer": 0,
      "byteLength": 134968,
      "byteOffset": 215424,
      "byteStride": 8,
      "name": "floatBufferViews",
      "target": 34962
    },
    {
      "buffer": 0,
      "byteLength": 404904,
      "byteOffset": 350392,
      "byteStride": 12,
      "name": "floatBufferViews",
      "target": 34962
    }
  ],
  "buffers": [
    {
      "byteLength": 755296,
      "uri": "scene.bin"
    }
  ],
  "images": [
    {
      "uri": "textures/Material_baseColor.png"
    }
  ],
  "materials": [
    {
      "doubleSided": true,
      "name": "Material.001",
      "pbrMetallicRoughness": {
        "baseColorFactor": [
          0.5173337459564209,
          0.5124853253364563,
          0.38361164927482605,
          1.0
        ],
        "metallicFactor": 0.0,
        "roughnessFactor": 0.6
      }
    },
    {
      "doubleSided": true,
      "name": "Material",
      "pbrMetallicRoughness": {
        "baseColorTexture": {
          "index": 0
        },
        "metallicFactor": 0.0,
        "roughnessFactor": 0.6
      }
    }
  ],
  "meshes": [
    {
      "name": "Cylinder_0",
      "primitives": [
        {
          "attributes": {
            "NORMAL": 1,
            "POSITION": 0,
            "TEXCOORD_0": 2
          },
          "indices": 3,
          "material": 1,
          "mode": 4
        }
      ]
    },
    {
      "name": "Cylinder_1",
      "primitives": [
        {
          "attributes": {
            "NORMAL": 5,
            "POSITION": 4,
            "TEXCOORD_0": 6
          },
          "indices": 7,
          "material": 0,
          "mode": 4
        }
      ]
    },
    {
      "name": "Cylinder.002_0",
      "primitives": [
        {
          "attributes": {
            "NORMAL": 9,
            "POSITION": 8,
            "TEXCOORD_0": 10
          },
          "indices": 11,
          "material": 0,
          "mode": 4
        }
      ]
    }
  ],
  "nodes": [
    {
      "children": [
        1
      ],
      "matrix": [
        0.8084619641304016,
        0.0,
        0.0,
        0.0,
        0.0,
        1.7951461742224986e-16,
        -0.8084619641304016,
        0.0,
        0.0,
        0.8084619641304016,
        1.7951461742224986e-16,
        0.0,
        0.0,
        0.0,
        0.0,
        1.0
      ],
      "name": "Sketchfab_model"
    },
    {
      "children": [
        2,
        4,
        7,
        9
      ],
      "name": "Root"
    },
    {
      "children": [
        3
      ],
      "matrix": [
        -0.29129,
        0.95657,
        -0.05527000000000001,
        0.0,
        -0.8962100000000001,
        -0.23232,
        0.7026100000000001,
        0.0,
        0.7178300000000001,
        0.27678,
        1.00715,
        0.0,
        4.076250000000001,
        -3.99455,
        1.26541,
        1.0
      ],
      "name": "Lamp"
    },
    {
      "name": "Lamp"
    },
    {
      "children": [
        5,
        6
      ],
      "matrix": [
        1.0,
        0.0,
        0.0,
        0.0,
        0.0,
        1.0,
        0.0,
        0.0,
        0.0,
        0.0,
        1.4,
        0.0,
        0.0,
        0.0,
        0.0,
        1.0
      ],
      "name": "Cylinder"
    },
    {
      "mesh": 0,
      "name": "Cylinder_0"
    },
    {
      "mesh": 1,
      "name": "Cylinder_1"
    },
    {
      "children": [
        8
      ],
      "matrix": [
        0.011790000000000004,
        -0.011780000000000004,
        0.0,
        0.0,
        0.011780000000000004,
        0.011790000000000004,
        0.0,
        0.0,
        0.0,
        0.0,
        1.4086299999999998,
        0.0,
        0.0,
        0.0,
        0.0,
        1.0
      ],
      "name": "Cylinder.002"
    },
    {
      "mesh": 2,
      "name": "Cylinder.002_0"
    },
    {
      "children": [
        10
      ],
      "matrix": [
        -0.29129,
        0.95657,
        -0.05527000000000001,
        0.0,
        -0.8962100000000001,
        -0.23232,
        0.7026100000000001,
        0.0,
        0.7178300000000001,
        0.27678,
        1.00715,
        0.0,
        0.07625000000000001,
        0.005450000000000001,
        4.265409999999999,
        1.0
      ],
      "name": "Lamp.001"
    },
    {
      "name": "Lamp.001"
    }
  ],
  "samplers": [
    {
      "magFilter": 9729,
      "minFilter": 9987,
      "wrapS": 10497,
      "wrapT": 10497
    }
  ],
  "scene": 0,
  "scenes": [
    {
      "name": "Sketchfab_Scene",
      "nodes": [
        0
      ]
    }
  ],
  "textures": [
    {
      "sampler": 0,
      "source": 0
    }
  ]
}
