{
  "accessors": [
    {
      "bufferView": 2,
      "componentType": 5126,
      "count": 45269,
      "max": [
        0.9267470836639404,
        0.6688268184661865,
        3.577023983001709
      ],
      "min": [
        -0.9440904259681702,
        -0.7405343651771545,
        -0.0018272633897140622
      ],
      "type": "VEC3"
    },
    {
      "bufferView": 2,
      "byteOffset": 543228,
      "componentType": 5126,
      "count": 45269,
      "max": [
        0.9999988079071045,
        0.9999593496322632,
        0.999419093132019
      ],
      "min": [
        -0.9999520778656006,
        -0.9999727010726929,
        -1.0
      ],
      "type": "VEC3"
    },
    {
      "bufferView": 3,
      "componentType": 5126,
      "count": 45269,
      "max": [
        0.9999989867210388,
        0.9986612796783447,
        0.9477342963218689,
        1.0
      ],
      "min": [
        -0.9999985098838806,
        -0.9999837875366211,
        -0.9999993443489075,
        -1.0
      ],
      "type": "VEC4"
    },
    {
      "bufferView": 1,
      "componentType": 5126,
      "count": 45269,
      "max": [
        1.0,
        1.0
      ],
      "min": [
        0.0,
        0.0
      ],
      "type": "VEC2"
    },
    {
      "bufferView": 0,
      "componentType": 5125,
      "count": 239688,
      "type": "SCALAR"
    }
  ],
  "asset": {
    "extras": {
      "author": "Piotr Lezanski (https://sketchfab.com/lezak)",
      "license": "CC-BY-NC-4.0 (http://creativecommons.org/licenses/by-nc/4.0/)",
      "source": "https://sketchfab.com/3d-models/african-wooden-figurine-407610fac49742a1817506ef81d2b9db",
      "title": "African wooden figurine"
    },
    "generator": "Sketchfab-12.67.0",
    "version": "2.0"
  },
  "bufferViews": [
    {
      "buffer": 0,
      "byteLength": 958752,
      "name": "floatBufferViews",
      "target": 34963
    },
    {
      "buffer": 0,
      "byteLength": 362152,
      "byteOffset": 958752,
      "byteStride": 8,
      "name": "floatBufferViews",
      "target": 34962
    },
    {
      "buffer": 0,
      "byteLength": 1086456,
      "byteOffset": 1320904,
      "byteStride": 12,
      "name": "floatBufferViews",
      "target": 34962
    },
    {
      "buffer": 0,
      "byteLength": 724304,
      "byteOffset": 2407360,
      "byteStride": 16,
      "name": "floatBufferViews",
      "target": 34962
    }
  ],
  "buffers": [
    {
      "byteLength": 3131664,
      "uri": "scene.bin"
    }
  ],
  "images": [
    {
      "uri": "textures/material0.002_baseColor.png"
    },
    {
      "uri": "textures/material0.002_metallicRoughness.png"
    },
    {
      "uri": "textures/material0.002_normal.png"
    }
  ],
  "materials": [
    {
      "doubleSided": true,
      "name": "material0.002",
      "normalTexture": {
        "index": 2
      },
      "occlusionTexture": {
        "index": 1
      },
      "pbrMetallicRoughness": {
        "baseColorTexture": {
          "index": 0
        },
        "metallicFactor": 0.0,
        "metallicRoughnessTexture": {
          "index": 1
        }
      }
    }
  ],
  "meshes": [
    {
      "name": "Retopo_Model_material0.002_0",
      "primitives": [
        {
          "attributes": {
            "NORMAL": 1,
            "POSITION": 0,
            "TANGENT": 2,
            "TEXCOORD_0": 3
          },
          "indices": 4,
          "material": 0,
          "mode": 4
        }
      ]
    }
  ],
  "nodes": [
    {
      "children": [
        1
      ],
      "matrix": [
        1.0,
        0.0,
        0.0,
        0.0,
        0.0,
        2.220446049250313e-16,
        -1.0,
        0.0,
        0.0,
        1.0,
        2.220446049250313e-16,
        0.0,
        0.0,
        -1.7203394691023317e-06,
        1.8357586668571457e-05,
        1.0
      ],
      "name": "Sketchfab_model"
    },
    {
      "children": [
        2
      ],
      "matrix": [
        1.0,
        0.0,
        0.0,
        0.0,
        0.0,
        0.0,
        1.0,
        0.0,
        0.0,
        -1.0,
        0.0,
        0.0,
        0.0,
        0.0,
        0.0,
        1.0
      ],
      "name": "african_figurine.fbx"
    },
    {
      "children": [
        3
      ],
      "name": "RootNode"
    },
    {
      "children": [
        4
      ],
      "matrix": [
        100.0,
        0.0,
        0.0,
        0.0,
        0.0,
        -1.629206793918314e-05,
        -99.99999999999868,
        0.0,
        0.0,
        99.99999999999868,
        -1.629206793918314e-05,
        0.0,
        0.0,
        0.0,
        0.0,
        1.0
      ],
      "name": "Retopo_Model"
    },
    {
      "mesh": 0,
      "name": "Retopo_Model_material0.002_0"
    }
  ],
  "samplers": [
    {
      "magFilter": 9729,
      "minFilter": 9987,
      "wrapS": 10497,
      "wrapT": 10497
    }
  ],
  "scene": 0,
  "scenes": [
    {
      "name": "Sketchfab_Scene",
      "nodes": [
        0
      ]
    }
  ],
  "textures": [
    {
      "sampler": 0,
      "source": 0
    },
    {
      "sampler": 0,
      "source": 1
    },
    {
      "sampler": 0,
      "source": 2
    }
  ]
}
