<svg xmlns="http://www.w3.org/2000/svg" version="1.1" xmlns:xlink="http://www.w3.org/1999/xlink" xmlns:svgjs="http://svgjs.dev/svgjs" width="1500" height="1500" viewBox="0 0 1500 1500"><rect width="1500" height="1500" fill="#000000"></rect><g transform="matrix(0.6666666666666666,0,0,0.6666666666666666,249.3362896182187,386.29473684210524)"><svg viewBox="0 0 339 247" data-background-color="#ffffff" preserveAspectRatio="xMidYMid meet" height="1092" width="1500" xmlns="http://www.w3.org/2000/svg" xmlns:xlink="http://www.w3.org/1999/xlink"><g id="tight-bounds" transform="matrix(1,0,0,1,0.2249978194238622,-0.09999999999999432)"><svg viewBox="0 0 338.5500043611523 247.2" height="247.2" width="338.5500043611523"><g><svg viewBox="0 0 395.52 288.79794045342845" height="247.2" width="338.5500043611523"><g><svg viewBox="0 0 395.52 288.79794045342845" height="288.79794045342845" width="395.52"><g id="textblocktransform"><svg viewBox="0 0 395.52 288.79794045342845" height="288.79794045342845" width="395.52" id="textblock"><g><svg viewBox="0 0 395.52 244.25285097345133" height="244.25285097345133" width="395.52"><g transform="matrix(1,0,0,1,0,0)"><svg width="395.52" viewBox="1.6099999999999994 -37.841128240458886 222.17000000000002 129.1911282404589" height="244.25285097345133" data-palette-color="#505050"><svg></svg><svg></svg><svg></svg><g class="wordmark-text-0" data-fill-palette-color="primary" id="text-0"><path d="M24.61-11.21v0l-0.03 1.05c-0.113 3.847-1.373 6.647-3.78 8.4v0c-2.033 1.5-4.807 2.25-8.32 2.25v0c-3.793 0-7.157-0.65-10.09-1.95v0l1.17-3.67c3.353 1.387 6.757 2.08 10.21 2.08v0c4.247 0 6.37-2.547 6.37-7.64v0-0.42c0-4.133-1.503-6.397-4.51-6.79v0c-0.88-0.113-1.78-0.17-2.7-0.17-0.92 0-1.797 0.027-2.63 0.08v0l-2.41 0.14-0.32-3.17c3.073-0.767 5.67-1.923 7.79-3.47v0c2.293-1.673 3.427-3.377 3.4-5.11-0.02-1.733-0.49-2.963-1.41-3.69-0.92-0.727-2.413-1.08-4.48-1.06v0c-2.787 0-5.467 0.677-8.04 2.03v0l-1.27-3.62c2.54-1.2 5.773-1.833 9.7-1.9v0c3.187-0.033 5.65 0.667 7.39 2.1v0c1.613 1.347 2.437 3.187 2.47 5.52v0c0.047 3.433-1.737 6.037-5.35 7.81v0c-1.073 0.52-2.203 1-3.39 1.44v0l0.05 0.22c3.827-0.067 6.497 0.657 8.01 2.17v0c1.447 1.447 2.17 3.903 2.17 7.37zM34.94 0v-37.13c0 0 1.22-0.09 3.66-0.27v0c3.66-0.293 6.58-0.44 8.76-0.44 2.18 0 3.923 0.083 5.23 0.25 1.3 0.173 2.443 0.467 3.43 0.88 0.987 0.42 1.823 0.987 2.51 1.7 0.693 0.713 1.26 1.623 1.7 2.73v0c0.827 2.073 1.24 5.15 1.24 9.23v0 3.79c0 4.833-0.357 8.503-1.07 11.01v0c-0.827 2.893-2.317 4.977-4.47 6.25v0c-2.213 1.333-5.46 2-9.74 2v0zM55.66-31.42c-0.58-0.927-1.423-1.627-2.53-2.1-1.113-0.473-2.817-0.71-5.11-0.71-2.293 0-5.27 0.14-8.93 0.42v0 30.32h7.76c3.027 0 5.273-0.497 6.74-1.49v0c1.433-0.96 2.393-2.613 2.88-4.96v0c0.42-1.92 0.63-5.027 0.63-9.32v0-3.81c0-4.053-0.48-6.837-1.44-8.35z" fill="#ffffff" fill-rule="nonzero" stroke="none" stroke-width="1" stroke-linecap="butt" stroke-linejoin="miter" stroke-miterlimit="10" stroke-dasharray="" stroke-dashoffset="0" font-family="none" font-weight="none" font-size="none" text-anchor="none" style="mix-blend-mode: normal" data-fill-palette-color="primary" opacity="1"></path><path d="M14.45 45.45l-12.84-37.37h4.49l9.43 28.44 1.27 5 1.39-5 9.2-28.44h4.45l-12.58 37.37zM41.7 9.42v0c-1.093 0-1.793-0.153-2.1-0.46v0c-0.487-0.507-0.73-1.203-0.73-2.09 0-0.887 0.053-1.523 0.16-1.91 0.1-0.38 0.257-0.677 0.47-0.89v0c0.393-0.387 0.993-0.58 1.8-0.58 0.8 0 1.377 0.04 1.73 0.12 0.347 0.08 0.637 0.233 0.87 0.46v0c0.387 0.393 0.58 1.033 0.58 1.92 0 0.887-0.043 1.52-0.13 1.9-0.093 0.387-0.243 0.693-0.45 0.92v0c-0.407 0.407-1.14 0.61-2.2 0.61zM39.77 45.43l-0.05-29.05h4.01v29.05zM65.89 19.92v0c-2.08 0-4.203 1.04-6.37 3.12v0 22.39h-4.05v-29.05h3.56l0.39 3.85c0.767-1.187 1.593-2.113 2.48-2.78 0.887-0.667 1.617-1.073 2.19-1.22v0c0.813-0.227 1.587-0.34 2.32-0.34 0.727 0 1.647 0.147 2.76 0.44v0l-0.37 3.88c-0.833-0.193-1.803-0.29-2.91-0.29zM89.23 40.86l1.4 3.18c-2.653 1.253-5.103 1.88-7.35 1.88v0c-4.073 0-6.387-1.743-6.94-5.23v0c-0.127-0.827-0.19-2.03-0.19-3.61v0-17.31h-3.52v-3l3.52-0.39 0.63-6.64h3.4v6.64h8.47v3.39h-8.47v17.24c0 2 0.147 3.277 0.44 3.83v0c0.533 1.007 1.607 1.51 3.22 1.51 1.607 0 3.403-0.497 5.39-1.49zM119.14 16.38v16.26c0 5.367 0.153 9.563 0.46 12.59v0l-3.63 0.3-0.59-3.44c-1.907 1.573-4.127 2.71-6.66 3.41v0c-1.013 0.28-2.217 0.42-3.61 0.42-1.387 0-2.63-0.167-3.73-0.5-1.1-0.333-1.977-0.867-2.63-1.6v0c-1.187-1.32-1.78-3.72-1.78-7.2v0-20.24h4.1v19.58c0 2.34 0.23 3.85 0.69 4.53 0.453 0.673 0.993 1.127 1.62 1.36 0.627 0.24 1.373 0.36 2.24 0.36 0.86 0 1.693-0.07 2.5-0.21 0.807-0.14 1.617-0.34 2.43-0.6v0c1.707-0.553 3.253-1.31 4.64-2.27v0-0.02c-0.067-1.24-0.1-3.65-0.1-7.23v0-15.5zM152.71 26.02v9.11c0 3.24 0.153 6.607 0.46 10.1v0l-3.61 0.3-0.61-3.4c-2.067 1.66-4.8 2.817-8.2 3.47v0c-1.107 0.213-2.093 0.32-2.96 0.32-0.86 0-1.62-0.04-2.28-0.12-0.66-0.087-1.293-0.247-1.9-0.48-0.613-0.233-1.18-0.563-1.7-0.99-0.52-0.42-0.977-0.98-1.37-1.68v0c-0.827-1.48-1.24-3.26-1.24-5.34 0-2.073 0.15-3.683 0.45-4.83 0.3-1.147 0.8-2.103 1.5-2.87v0c1.387-1.513 3.713-2.27 6.98-2.27 3.273 0 6.767 0.617 10.48 1.85v0-3.17c0-3.533-1.457-5.623-4.37-6.27v0c-0.947-0.213-2.03-0.32-3.25-0.32v0c-2.787 0-5.677 0.553-8.67 1.66v0l-0.9-3.52c0.827-0.553 2.943-1.05 6.35-1.49v0c1.073-0.127 2.363-0.19 3.87-0.19 1.5 0 2.977 0.18 4.43 0.54 1.447 0.353 2.65 0.937 3.61 1.75v0c1.953 1.613 2.93 4.227 2.93 7.84zM148.61 32.25v0c-3.807-0.96-7.323-1.44-10.55-1.44v0c-1.987 0-3.303 0.567-3.95 1.7v0c-0.44 0.8-0.66 1.98-0.66 3.54 0 1.567 0.083 2.7 0.25 3.4 0.173 0.7 0.457 1.277 0.85 1.73v0c0.76 0.867 2.02 1.3 3.78 1.3v0c2.753 0 5.48-0.71 8.18-2.13v0c0.827-0.42 1.573-0.89 2.24-1.41v0c-0.093-1.76-0.14-3.99-0.14-6.69zM164.7 45.43l-0.05-41.5 4.03-0.35v41.85z" fill="#ffffff" fill-rule="nonzero" stroke="none" stroke-width="1" stroke-linecap="butt" stroke-linejoin="miter" stroke-miterlimit="10" stroke-dasharray="" stroke-dashoffset="0" font-family="none" font-weight="none" font-size="none" text-anchor="none" style="mix-blend-mode: normal" data-fill-palette-color="primary" opacity="1"></path><path d="M3.08 90.86l5.76-37.35h6.37l8.5 27.58 1.44 5.96 1.39-5.98 8.2-27.56h6.08l6.03 37.35h-4.15l-4.54-28.22-0.68-6.59-1.49 6.64-8.43 28.15h-4.81l-8.79-28.3-1.73-6.49-0.83 6.54-4.12 28.27zM77.49 61.81v16.26c0 5.367 0.153 9.563 0.46 12.59v0l-3.63 0.3-0.59-3.44c-1.907 1.573-4.127 2.71-6.66 3.41v0c-1.013 0.28-2.217 0.42-3.61 0.42-1.387 0-2.63-0.167-3.73-0.5-1.1-0.333-1.977-0.867-2.63-1.6v0c-1.187-1.32-1.78-3.72-1.78-7.2v0-20.24h4.1v19.58c0 2.34 0.23 3.85 0.69 4.53 0.453 0.673 0.993 1.127 1.62 1.36 0.627 0.24 1.37 0.36 2.23 0.36 0.867 0 1.703-0.07 2.51-0.21 0.807-0.14 1.617-0.34 2.43-0.6v0c1.707-0.553 3.253-1.31 4.64-2.27v0-0.02c-0.067-1.24-0.1-3.65-0.1-7.23v0-15.5zM87.11 88.47l1.76-3.37c3.353 1.873 6.72 2.81 10.1 2.81v0c2.82 0 4.473-1.003 4.96-3.01v0c0.16-0.68 0.24-1.513 0.24-2.5 0-0.987-0.113-1.75-0.34-2.29-0.227-0.547-0.607-0.957-1.14-1.23-0.54-0.267-1.253-0.463-2.14-0.59-0.887-0.133-2.013-0.317-3.38-0.55-1.367-0.24-2.62-0.507-3.76-0.8-1.14-0.293-2.11-0.717-2.91-1.27v0c-1.693-1.187-2.507-3.187-2.44-6v0-0.61c0-2.967 0.977-5.077 2.93-6.33v0c1.887-1.233 5.003-1.653 9.35-1.26v0c2.967 0.273 5.327 0.783 7.08 1.53v0l-1.15 3.69c-1.953-0.833-4.297-1.437-7.03-1.81v0c-0.847-0.113-1.64-0.17-2.38-0.17-0.74 0-1.41 0.057-2.01 0.17-0.6 0.113-1.107 0.327-1.52 0.64v0c-0.78 0.633-1.187 1.813-1.22 3.54v0c-0.047 2.033 0.523 3.327 1.71 3.88v0c1.14 0.54 2.493 0.91 4.06 1.11 1.56 0.207 2.837 0.387 3.83 0.54 0.993 0.153 1.897 0.36 2.71 0.62 0.813 0.26 1.513 0.677 2.1 1.25v0c1.22 1.153 1.813 3.163 1.78 6.03v0c-0.08 4.993-2.163 7.84-6.25 8.54v0c-1.233 0.213-2.47 0.32-3.71 0.32-1.24 0-2.377-0.077-3.41-0.23-1.033-0.16-2.02-0.377-2.96-0.65v0c-1.793-0.507-3.413-1.173-4.86-2zM139.53 85.83l1.19 3.49c-3.367 1.353-7.083 2.03-11.15 2.03v0c-2.36 0-4.363-0.243-6.01-0.73v0c-2.62-0.753-4.363-2.3-5.23-4.64v0c-0.793-2.2-1.19-5.457-1.19-9.77v0-1.24c0-5.16 1.073-8.783 3.22-10.87v0c1.94-1.853 5.17-2.78 9.69-2.78v0c4.413 0 7.427 1.09 9.04 3.27v0c0.78 1.06 1.297 2.343 1.55 3.85 0.253 1.5 0.38 2.933 0.38 4.3v0c0 2.133-0.05 3.787-0.15 4.96v0c-2.293 0.1-4.353 0.15-6.18 0.15v0c0 0-1.31 0-3.93 0v0c-4.1 0-7.257-0.18-9.47-0.54v0c0 3.747 0.473 6.36 1.42 7.84v0c1.153 1.807 3.453 2.71 6.9 2.71 3.453 0 6.76-0.677 9.92-2.03zM121.29 74.45h15.6v-2.34c0-2.553-0.497-4.377-1.49-5.47v0c-1.107-1.22-3.02-1.83-5.74-1.83v0c-3.253 0-5.473 0.707-6.66 2.12v0c-1.14 1.353-1.71 3.86-1.71 7.52zM173.24 61.81v16.26c0 5.367 0.157 9.563 0.47 12.59v0l-3.64 0.3-0.59-3.44c-1.9 1.573-4.12 2.71-6.66 3.41v0c-1.013 0.28-2.213 0.42-3.6 0.42-1.393 0-2.64-0.167-3.74-0.5-1.1-0.333-1.973-0.867-2.62-1.6v0c-1.193-1.32-1.79-3.72-1.79-7.2v0-20.24h4.11v19.58c0 2.34 0.227 3.85 0.68 4.53 0.453 0.673 0.993 1.127 1.62 1.36 0.627 0.24 1.373 0.36 2.24 0.36 0.86 0 1.693-0.07 2.5-0.21 0.807-0.14 1.617-0.34 2.43-0.6v0c1.707-0.553 3.253-1.31 4.64-2.27v0-0.02c-0.067-1.24-0.1-3.65-0.1-7.23v0-15.5zM197.36 65.13v0c-2.653 0-5.55 0.937-8.69 2.81v0 22.92h-4.05v-29.05h3.56l0.39 3c2.853-2.327 6.043-3.49 9.57-3.49v0c2.02 0 3.613 0.29 4.78 0.87 1.16 0.573 2 1.52 2.52 2.84v0c3.6-2.473 7.02-3.71 10.26-3.71v0c3.06 0 5.183 0.7 6.37 2.1v0c1.14 1.347 1.71 3.747 1.71 7.2v0 20.24h-4.1v-19.48c0-2.347-0.23-3.857-0.69-4.53-0.453-0.673-0.993-1.13-1.62-1.37-0.627-0.233-1.36-0.35-2.2-0.35-0.833 0-1.62 0.077-2.36 0.23-0.747 0.153-1.5 0.36-2.26 0.62v0c-1.547 0.54-3.03 1.223-4.45 2.05v0c0.087 0.98 0.13 1.843 0.13 2.59v0 20.24h-4.11v-19.48c0-2.347-0.227-3.857-0.68-4.53-0.453-0.673-0.993-1.13-1.62-1.37-0.627-0.233-1.447-0.35-2.46-0.35z" fill="#ffffff" fill-rule="nonzero" stroke="none" stroke-width="1" stroke-linecap="butt" stroke-linejoin="miter" stroke-miterlimit="10" stroke-dasharray="" stroke-dashoffset="0" font-family="none" font-weight="none" font-size="none" text-anchor="none" style="mix-blend-mode: normal" data-fill-palette-color="primary" opacity="1"></path></g></svg></g></svg></g><g transform="matrix(1,0,0,1,0,262.20438756700884)"><svg viewBox="0 0 232.209792 26.593552886419623" height="26.593552886419623" width="232.209792"><g transform="matrix(1,0,0,1,0,0)"><svg width="232.209792" viewBox="0.76 -38.99 465.75 53.35" height="26.593552886419623" data-palette-color="#505050"><path d="M41.46-24.61L30.54 1.25 28.86 0.76 22.95-18.65 15.26 1.25 13.55 0.76 6.3-19.8Q5.91-21.07 5.37-21.8 4.83-22.53 4.24-22.75 3.64-22.97 2.92-23.01 2.2-23.05 1-22.85L1-22.85 0.76-23.34Q4.86-25.39 8.01-25.39L8.01-25.39 14.16-8.3Q14.67-6.57 15.26-3.81L15.26-3.81 15.65-3.81Q16.55-6.79 16.94-7.74L16.94-7.74 22.09-21.04Q21.8-21.85 21.29-22.27 20.78-22.68 20.39-22.88L20.39-22.88Q20.17-23 19.74-23.03 19.31-23.07 18.86-23.06 18.41-23.05 17.98-22.99 17.55-22.92 17.31-22.85L17.31-22.85 17.04-23.34Q21.14-25.39 24.24-25.39L24.24-25.39 29.59-8.4Q30.18-6.52 30.69-3.91L30.69-3.91 31.1-3.91Q31.86-6.4 32.4-7.86L32.4-7.86 38.16-22.29Q38.4-22.88 38.04-23.24 37.67-23.61 36.74-23.74 35.82-23.88 34.45-23.75L34.45-23.75 34.3-24.34Q37.43-25.02 41.16-25.1L41.16-25.1 41.46-24.61ZM65.26-2.44L65.26-17.04Q65.26-19.09 64.87-20.4 64.48-21.7 63.8-22.45 63.13-23.19 62.24-23.49 61.35-23.78 60.35-23.78L60.35-23.78Q59.13-23.78 58.07-23.56 57-23.34 55.94-22.89 54.88-22.44 53.78-21.77 52.68-21.09 51.41-20.19L51.41-20.19 51.41-3.34Q51.41-2.56 51.54-2.09 51.66-1.61 52.05-1.29 52.44-0.98 53.15-0.73 53.85-0.49 55-0.2L55-0.2 54.81 0.39Q53.39 0.2 52.4 0.1 51.41 0 50.41 0 49.41 0 47.56 0.39L47.56 0.39 47.41 0.15Q47.9-0.56 47.9-2.44L47.9-2.44 47.9-31.69Q47.9-33.33 47.74-34.42 47.58-35.52 47.18-36.18 46.77-36.84 46.07-37.11 45.36-37.38 44.57-37.38 43.77-37.38 43.6-37.35L43.6-37.35 43.5-37.79Q47.48-38.99 50.9-38.99L50.9-38.99Q51.41-37.7 51.41-36.21L51.41-36.21 51.41-21.9Q53.1-23.05 54.48-23.79 55.86-24.54 57.07-24.98 58.27-25.42 59.36-25.59 60.45-25.76 61.57-25.76L61.57-25.76Q63.11-25.76 64.39-25.35 65.67-24.95 66.6-24.04 67.53-23.12 68.09-21.63 68.65-20.14 68.75-17.94L68.75-17.94 68.75-2.76Q68.75-2.17 69.03-1.78 69.31-1.39 69.76-1.12 70.21-0.85 70.8-0.67 71.38-0.49 72.02-0.29L72.02-0.29 71.8 0.29Q70.43 0 68.6 0 66.77 0 64.91 0.39L64.91 0.39 64.77 0.15Q65.26-0.56 65.26-2.44L65.26-2.44ZM76.75-11.89L76.75-11.89Q76.75-14.48 77.61-16.91 78.46-19.34 80.05-21.23 81.64-23.12 83.89-24.26 86.15-25.39 88.96-25.39L88.96-25.39Q90.72-25.39 92.28-24.79 93.84-24.19 95-22.94 96.16-21.68 96.83-19.71 97.5-17.75 97.5-15.04L97.5-15.04 96.55-14.16 80.61-14.16Q80.56-13.75 80.56-13.35 80.56-12.96 80.56-12.57L80.56-12.57Q80.56-9.91 81.18-7.74 81.81-5.57 82.87-4.02 83.93-2.47 85.37-1.61 86.81-0.76 88.42-0.76L88.42-0.76Q89.45-0.76 90.51-0.92 91.57-1.07 92.59-1.42 93.6-1.76 94.55-2.29 95.5-2.83 96.31-3.59L96.31-3.59 97.31-2.54Q95.38-0.63 93.11 0.18 90.84 1 87.86 1L87.86 1Q85.52 1 83.48 0.1 81.44-0.81 79.95-2.49 78.46-4.17 77.61-6.56 76.75-8.94 76.75-11.89ZM88.42-23.71L88.42-23.71Q84.64-23.71 82.88-21.74 81.12-19.78 80.76-16.09L80.76-16.09 94.36-16.09Q94.16-20.09 92.56-21.9 90.96-23.71 88.42-23.71ZM105.66-2.44L105.66-18.09Q105.66-19.73 105.5-20.83 105.34-21.92 104.94-22.58 104.53-23.24 103.83-23.51 103.12-23.78 101.36-23.75L101.36-23.75 101.26-24.19Q105.24-25.39 108.66-25.39L108.66-25.39Q109.17-24.1 109.17-22.61L109.17-22.61 109.17-19.6 109.27-19.51Q110.3-20.92 111.24-22.02 112.18-23.12 113.15-23.85 114.13-24.58 115.2-24.96 116.28-25.34 117.6-25.34L117.6-25.34Q118.43-25.34 119.43-25.2L119.43-25.2 118.01-19.24 117.11-19.51Q117.11-19.87 117.06-20.51 117.01-21.14 116.92-21.77 116.84-22.39 116.7-22.84 116.57-23.29 116.4-23.29L116.4-23.29Q115.69-23.29 114.97-22.99 114.25-22.68 113.4-22 112.54-21.31 111.52-20.21 110.49-19.12 109.17-17.55L109.17-17.55 109.17-3.34Q109.17-2.56 109.29-2.09 109.42-1.61 109.81-1.29 110.2-0.98 110.91-0.73 111.61-0.49 112.76-0.2L112.76-0.2 112.57 0.39Q111.15 0.2 110.16 0.1 109.17 0 108.56 0L108.56 0Q107.17 0 105.31 0.39L105.31 0.39 105.17 0.15Q105.66-0.56 105.66-2.44L105.66-2.44ZM122.91-11.89L122.91-11.89Q122.91-14.48 123.77-16.91 124.62-19.34 126.21-21.23 127.8-23.12 130.06-24.26 132.31-25.39 135.12-25.39L135.12-25.39Q136.88-25.39 138.44-24.79 140-24.19 141.16-22.94 142.32-21.68 143-19.71 143.67-17.75 143.67-15.04L143.67-15.04 142.71-14.16 126.77-14.16Q126.72-13.75 126.72-13.35 126.72-12.96 126.72-12.57L126.72-12.57Q126.72-9.91 127.35-7.74 127.97-5.57 129.03-4.02 130.09-2.47 131.53-1.61 132.97-0.76 134.58-0.76L134.58-0.76Q135.61-0.76 136.67-0.92 137.73-1.07 138.75-1.42 139.76-1.76 140.71-2.29 141.66-2.83 142.47-3.59L142.47-3.59 143.47-2.54Q141.54-0.63 139.27 0.18 137 1 134.02 1L134.02 1Q131.68 1 129.64 0.1 127.6-0.81 126.11-2.49 124.62-4.17 123.77-6.56 122.91-8.94 122.91-11.89ZM134.58-23.71L134.58-23.71Q130.8-23.71 129.04-21.74 127.28-19.78 126.92-16.09L126.92-16.09 140.52-16.09Q140.32-20.09 138.72-21.9 137.12-23.71 134.58-23.71ZM184.02 6.2L184.02 6.2Q184.02 8.64 182.2 10.53 180.38 12.43 177.5 13.39 174.62 14.36 171.27 14.36L171.27 14.36Q168.71 14.36 166.66 13.67 164.61 12.99 163.27 11.4 161.92 9.81 161.92 7.54L161.92 7.54Q161.92 5.18 164 3.15 166.07 1.12 169.47-0.29L169.47-0.29Q166.39-0.98 165.05-1.79 163.71-2.61 163.71-4.35L163.71-4.35Q163.71-5.88 164.66-6.82 165.61-7.76 167.9-8.35L167.9-8.35Q165.22-9.18 163.72-11.21 162.22-13.23 162.22-16.46L162.22-16.46Q162.22-18.8 163.6-20.87 164.98-22.95 167.23-24.17 169.49-25.39 171.96-25.39L171.96-25.39Q174.79-25.39 176.96-24.51L176.96-24.51 184.97-25.39 185.17-24.56 183.41-22.75 179.06-23.14Q181.58-20.9 181.58-16.65L181.58-16.65Q181.58-14.5 180.28-12.48 178.99-10.45 176.72-9.16 174.45-7.86 171.86-7.86L171.86-7.86Q168.34-7.25 167.36-6.79 166.37-6.32 166.37-5.3L166.37-5.3Q166.37-4.69 167.71-4.11 169.05-3.54 173.01-2.54L173.01-2.54Q174.81-2.1 176.06-1.75 177.3-1.39 178.55-0.94 179.79-0.49 180.59-0.02 181.38 0.44 182.1 1.06 182.82 1.68 183.2 2.43 183.58 3.17 183.8 4.1 184.02 5.03 184.02 6.2ZM172.76 0.34L172.76 0.34 171.76 0.1Q168.69 1.25 166.9 3.2 165.12 5.15 165.12 7.15L165.12 7.15Q165.12 8.57 165.89 9.66 166.66 10.74 167.95 11.35 169.25 11.96 170.71 12.26 172.18 12.55 173.76 12.55L173.76 12.55Q180.92 12.55 180.92 6.96L180.92 6.96Q180.92 4.25 178.88 2.73 176.84 1.22 172.76 0.34ZM170.96-23.66L170.96-23.66Q167.88-23.66 166.7-22.08 165.51-20.51 165.51-16.85L165.51-16.85Q165.51-15.14 166.06-13.81 166.61-12.48 167.44-11.71 168.27-10.94 169.38-10.44 170.49-9.94 171.46-9.77 172.42-9.59 173.37-9.59L173.37-9.59Q175.86-9.59 177.06-11.38 178.26-13.16 178.26-16.26L178.26-16.26Q178.26-18.04 177.71-19.42 177.16-20.8 176.36-21.57 175.57-22.34 174.52-22.84 173.47-23.34 172.62-23.5 171.76-23.66 170.96-23.66ZM201.06-25.39L201.06-25.39Q206.67-25.39 209.87-21.95 213.07-18.51 213.07-12.35L213.07-12.35Q213.07-8.79 211.43-5.71 209.8-2.64 206.99-0.82 204.18 1 200.91 1L200.91 1Q195.27 1 192.08-2.4 188.9-5.81 188.9-12.06L188.9-12.06Q188.9-15.77 190.53-18.84 192.17-21.9 194.97-23.65 197.76-25.39 201.06-25.39ZM200.57-23.71L200.57-23.71Q198.64-23.71 197.22-23.14 195.81-22.58 194.95-21.63 194.1-20.68 193.59-19.21 193.07-17.75 192.89-16.21 192.71-14.67 192.71-12.65L192.71-12.65Q192.71-9.42 193.48-7.02 194.25-4.61 195.54-3.28 196.83-1.95 198.3-1.33 199.76-0.71 201.4-0.71L201.4-0.71Q203.3-0.71 204.73-1.31 206.16-1.9 207.01-2.87 207.87-3.83 208.38-5.31 208.89-6.79 209.08-8.3 209.26-9.81 209.26-11.74L209.26-11.74Q209.26-14.45 208.75-16.58 208.23-18.7 207.39-20.02 206.55-21.34 205.39-22.19 204.23-23.05 203.06-23.38 201.89-23.71 200.57-23.71ZM230.2-25.39L230.2-25.39Q235.82-25.39 239.02-21.95 242.22-18.51 242.22-12.35L242.22-12.35Q242.22-8.79 240.58-5.71 238.94-2.64 236.14-0.82 233.33 1 230.06 1L230.06 1Q224.42 1 221.23-2.4 218.05-5.81 218.05-12.06L218.05-12.06Q218.05-15.77 219.68-18.84 221.32-21.9 224.11-23.65 226.91-25.39 230.2-25.39ZM229.72-23.71L229.72-23.71Q227.79-23.71 226.37-23.14 224.96-22.58 224.1-21.63 223.25-20.68 222.73-19.21 222.22-17.75 222.04-16.21 221.86-14.67 221.86-12.65L221.86-12.65Q221.86-9.42 222.62-7.02 223.39-4.61 224.69-3.28 225.98-1.95 227.45-1.33 228.91-0.71 230.55-0.71L230.55-0.71Q232.45-0.71 233.88-1.31 235.31-1.9 236.16-2.87 237.02-3.83 237.53-5.31 238.04-6.79 238.22-8.3 238.41-9.81 238.41-11.74L238.41-11.74Q238.41-14.45 237.9-16.58 237.38-18.7 236.54-20.02 235.7-21.34 234.54-22.19 233.38-23.05 232.21-23.38 231.03-23.71 229.72-23.71ZM265.36-25L265.36-31.69Q265.36-33.35 265.21-34.33 265.07-35.3 264.61-36.04 264.16-36.77 263.31-37.06 262.45-37.35 261.06-37.35L261.06-37.35 260.96-37.79Q264.99-38.99 268.36-38.99L268.36-38.99Q268.85-37.7 268.85-36.21L268.85-36.21 268.85-4.39Q268.85-2.47 269.75-1.54 270.66-0.61 272.95-0.2L272.95-0.2 272.76 0.39Q269.95 0 268.26 0L268.26 0Q266.95 0 264.99 0.39L264.99 0.39 264.85 0.15Q265.36-0.56 265.36-2.44L265.36-2.44 265.36-2.66Q261.77 1 257.86 1L257.86 1Q255.79 1 253.87 0.12 251.96-0.76 250.47-2.31 248.98-3.86 248.09-6.19 247.19-8.52 247.19-11.25L247.19-11.25Q247.19-17.8 250.65-21.59 254.1-25.39 260.65-25.39L260.65-25.39Q262.7-25.39 265.36-25L265.36-25ZM265.36-4.44L265.36-22.29Q262.58-23.56 258.86-23.56L258.86-23.56Q256.96-23.56 255.57-23.03 254.18-22.51 253.31-21.61 252.44-20.7 251.93-19.27 251.42-17.85 251.23-16.26 251.05-14.67 251.05-12.55L251.05-12.55Q251.05-6.96 253.13-4.03 255.2-1.1 258.5-1.1L258.5-1.1Q262.09-1.1 265.36-4.44L265.36-4.44ZM308.18-17.65L308.18-2.76Q308.18-2.34 308.36-1.99 308.54-1.64 308.8-1.4 309.05-1.17 309.54-0.95 310.03-0.73 310.4-0.61 310.76-0.49 311.42-0.29L311.42-0.29 311.23 0.29Q309.66 0 308.13 0L308.13 0Q306.2 0 304.32 0.39L304.32 0.39 304.17 0.15Q304.68-0.56 304.68-2.44L304.68-2.44 304.68-4.05Q303.46-1.78 300.89-0.39 298.31 1 295.68 1L295.68 1Q292.87 1 291.15-0.45 289.43-1.9 289.43-4.76L289.43-4.76Q289.43-6.62 290.19-8.07 290.96-9.52 292.25-10.53 293.53-11.55 295.54-12.33 297.56-13.11 299.69-13.6 301.83-14.09 304.68-14.5L304.68-14.5 304.68-16.75Q304.68-23.46 299.39-23.46L299.39-23.46Q297.68-23.46 295.2-22.62 292.72-21.78 291.04-20.41L291.04-20.41 290.04-21.56Q292.16-23.24 295.08-24.34 297.99-25.44 300.53-25.44L300.53-25.44Q301.66-25.44 302.67-25.23 303.68-25.02 304.72-24.48 305.76-23.93 306.5-23.08 307.25-22.24 307.71-20.84 308.18-19.43 308.18-17.65L308.18-17.65ZM296.82-0.85L296.82-0.85Q298.95-0.85 301.27-2.26 303.59-3.66 304.68-5.76L304.68-5.76 304.68-13.21Q298.43-12.3 295.76-10.44 293.09-8.57 293.09-5L293.09-5Q293.09-2.83 294.02-1.84 294.94-0.85 296.82-0.85ZM319.31-2.44L319.31-18.09Q319.31-19.73 319.15-20.83 318.99-21.92 318.59-22.58 318.18-23.24 317.47-23.51 316.77-23.78 315.01-23.75L315.01-23.75 314.91-24.19Q318.89-25.39 322.31-25.39L322.31-25.39Q322.82-24.1 322.82-22.61L322.82-22.61 322.82-19.6 322.92-19.51Q323.94-20.92 324.88-22.02 325.82-23.12 326.8-23.85 327.78-24.58 328.85-24.96 329.93-25.34 331.24-25.34L331.24-25.34Q332.07-25.34 333.08-25.2L333.08-25.2 331.66-19.24 330.76-19.51Q330.76-19.87 330.71-20.51 330.66-21.14 330.57-21.77 330.49-22.39 330.35-22.84 330.22-23.29 330.05-23.29L330.05-23.29Q329.34-23.29 328.62-22.99 327.9-22.68 327.05-22 326.19-21.31 325.17-20.21 324.14-19.12 322.82-17.55L322.82-17.55 322.82-3.34Q322.82-2.56 322.94-2.09 323.07-1.61 323.46-1.29 323.85-0.98 324.55-0.73 325.26-0.49 326.41-0.2L326.41-0.2 326.22 0.39Q324.8 0.2 323.81 0.1 322.82 0 322.21 0L322.21 0Q320.82 0 318.96 0.39L318.96 0.39 318.82 0.15Q319.31-0.56 319.31-2.44L319.31-2.44ZM343.47-22.61L343.47-6.74Q343.47-3.42 344.21-2.16 344.94-0.9 346.57-0.9L346.57-0.9Q348.36-0.9 350.92-2.25L350.92-2.25 351.68-1.2Q347.65 1 345.08 1L345.08 1Q343.72 1 342.86 0.76 342.01 0.51 341.3-0.2 340.59-0.9 340.29-2.28 339.98-3.66 339.98-5.86L339.98-5.86 339.98-22.41 336.32-22.19 336.32-23.75Q338.25-24.17 339.98-24.29L339.98-24.29 339.98-27.76Q342.06-28.93 343.38-31.1L343.38-31.1 344.13-30.81Q343.72-29.83 343.6-28.6 343.47-27.37 343.47-24.44L343.47-24.44 351.87-24.44 351.87-23.58Q350.85-23.17 349.8-22.89 348.75-22.61 347.62-22.61L347.62-22.61 343.47-22.61ZM375.26-36.21L375.26-4.39Q375.26-2.47 376.16-1.54 377.06-0.61 379.36-0.2L379.36-0.2 379.16 0.39Q376.35 0 374.83 0 373.3 0 371.4 0.39L371.4 0.39 371.25 0.15Q371.74-0.56 371.74-2.44L371.74-2.44 371.74-31.69Q371.74-35.16 370.92-36.34 370.1-37.52 367.44-37.35L367.44-37.35 367.35-37.79Q371.37-38.99 374.74-38.99L374.74-38.99Q375.26-37.72 375.26-36.21L375.26-36.21ZM386.73-2.44L386.73-18.09Q386.73-21.56 385.91-22.74 385.09-23.93 382.43-23.75L382.43-23.75 382.33-24.19Q386.36-25.39 389.73-25.39L389.73-25.39Q390.24-24.12 390.24-22.61L390.24-22.61 390.24-4.39Q390.24-2.47 391.15-1.54 392.05-0.61 394.34-0.2L394.34-0.2 394.15 0.39Q391.34 0 389.82 0 388.29 0 386.39 0.39L386.39 0.39 386.24 0.15Q386.73-0.56 386.73-2.44L386.73-2.44ZM384.24-34.45L384.24-34.45Q386.56-35.79 389.49-36.69L389.49-36.69Q389.49-34.67 390.15-32.69L390.15-32.69 389.83-32.25Q387.51-32.1 384.99-30.96L384.99-30.96Q384.38-32.64 384.24-34.45ZM420.34-24.66L409.23 1.25 407.53 0.76 399.69-19.8Q399.37-20.73 399.03-21.39 398.69-22.05 398.13-22.44 397.56-22.83 396.67-22.92 395.78-23.02 394.39-22.85L394.39-22.85 394.15-23.34Q398.25-25.39 401.5-25.39L401.5-25.39 407.94-8.15Q408.77-5.35 409.09-3.66L409.09-3.66 409.48-3.66Q409.58-3.98 409.85-4.87 410.11-5.76 410.33-6.38 410.55-7.01 410.8-7.59L410.8-7.59 417.19-22.34Q417.66-23.46 415.83-23.78L415.83-23.78Q414.83-23.93 413.29-23.8L413.29-23.8 413.14-24.39Q416.24-25.05 420.03-25.15L420.03-25.15 420.34-24.66ZM423.93-11.89L423.93-11.89Q423.93-14.48 424.78-16.91 425.64-19.34 427.23-21.23 428.81-23.12 431.07-24.26 433.33-25.39 436.14-25.39L436.14-25.39Q437.89-25.39 439.46-24.79 441.02-24.19 442.18-22.94 443.34-21.68 444.01-19.71 444.68-17.75 444.68-15.04L444.68-15.04 443.73-14.16 427.79-14.16Q427.74-13.75 427.74-13.35 427.74-12.96 427.74-12.57L427.74-12.57Q427.74-9.91 428.36-7.74 428.98-5.57 430.05-4.02 431.11-2.47 432.55-1.61 433.99-0.76 435.6-0.76L435.6-0.76Q436.62-0.76 437.69-0.92 438.75-1.07 439.76-1.42 440.78-1.76 441.73-2.29 442.68-2.83 443.49-3.59L443.49-3.59 444.49-2.54Q442.56-0.63 440.29 0.18 438.02 1 435.04 1L435.04 1Q432.69 1 430.66 0.1 428.62-0.81 427.13-2.49 425.64-4.17 424.78-6.56 423.93-8.94 423.93-11.89ZM435.6-23.71L435.6-23.71Q431.82-23.71 430.06-21.74 428.3-19.78 427.93-16.09L427.93-16.09 441.53-16.09Q441.34-20.09 439.74-21.9 438.14-23.71 435.6-23.71ZM466.51-5.69L466.51-5.69Q466.51-3.93 465.8-2.66 465.09-1.39 463.91-0.57 462.72 0.24 461.15 0.62 459.57 1 457.84 1L457.84 1Q453.64 1 449.95-0.76L449.95-0.76Q450.42-2.37 450.88-3.75 451.34-5.13 451.83-6.3L451.83-6.3 452.54-6.05Q452.32-4.98 452.32-3.99 452.32-3 452.39-2.2L452.39-2.2Q453.15-1.81 453.81-1.53 454.47-1.25 455.13-1.06 455.79-0.88 456.54-0.79 457.3-0.71 458.3-0.71L458.3-0.71Q459.79-0.71 460.77-0.9 461.74-1.1 462.29-1.57 462.84-2.05 463.06-2.84 463.28-3.64 463.28-4.81L463.28-4.81Q463.28-5.71 462.98-6.51 462.67-7.3 461.93-8.08 461.18-8.86 459.95-9.7 458.72-10.55 456.89-11.55L456.89-11.55Q453.93-13.31 452.42-15.05 450.9-16.8 450.9-18.8L450.9-18.8Q450.9-20.39 451.56-21.62 452.22-22.85 453.36-23.69 454.49-24.54 456.01-24.96 457.52-25.39 459.21-25.39L459.21-25.39Q460.06-25.39 461-25.27 461.94-25.15 462.82-24.91 463.7-24.68 464.47-24.35 465.24-24.02 465.8-23.61L465.8-23.61Q465.02-20.41 463.89-17.99L463.89-17.99 463.18-18.26Q463.23-18.97 463.26-20.01 463.28-21.04 463.28-22.46L463.28-22.46Q461.7-23.71 458.89-23.71L458.89-23.71Q457.5-23.71 456.53-23.54 455.57-23.36 454.98-22.95 454.4-22.53 454.14-21.81 453.88-21.09 453.88-20L453.88-20Q453.88-19.19 454.1-18.49 454.32-17.8 454.88-17.13 455.45-16.46 456.41-15.76 457.37-15.06 458.89-14.26L458.89-14.26Q461.26-12.96 462.73-11.99 464.21-11.01 465.05-10.07 465.89-9.13 466.2-8.11 466.51-7.08 466.51-5.69Z" opacity="1" transform="matrix(1,0,0,1,0,0)" fill="#ffffff" class="slogan-text-1" data-fill-palette-color="secondary" id="text-1"></path></svg></g></svg></g></svg></g></svg></g></svg></g><defs></defs></svg><rect width="338.5500043611523" height="247.2" fill="none" stroke="none" visibility="hidden"></rect></g></svg></g></svg>