{
  "accessors": [
    {
      "bufferView": 2,
      "componentType": 5126,
      "count": 32,
      "max": [
        383.8583068847656,
        187.00790405273438,
        19.685039520263672
      ],
      "min": [
        19.685039520263672,
        9.842519760131836,
        19.685039520263672
      ],
      "type": "VEC3"
    },
    {
      "bufferView": 2,
      "byteOffset": 384,
      "componentType": 5126,
      "count": 32,
      "max": [
        -0.0,
        -0.0,
        1.0
      ],
      "min": [
        -0.0,
        -0.0,
        1.0
      ],
      "type": "VEC3"
    },
    {
      "bufferView": 1,
      "componentType": 5126,
      "count": 32,
      "max": [
        3.1988189220428467,
        3.8959970474243164
      ],
      "min": [
        0.16404199600219727,
        0.20505249500274658
      ],
      "type": "VEC2"
    },
    {
      "bufferView": 0,
      "componentType": 5125,
      "count": 90,
      "type": "SCALAR"
    },
    {
      "bufferView": 2,
      "byteOffset": 768,
      "componentType": 5126,
      "count": 162,
      "max": [
        393.7008056640625,
        196.85040283203125,
        157.4803009033203
      ],
      "min": [
        0.0,
        0.0,
        0.0
      ],
      "type": "VEC3"
    },
    {
      "bufferView": 2,
      "byteOffset": 2712,
      "componentType": 5126,
      "count": 162,
      "max": [
        1.0,
        1.0,
        1.0
      ],
      "min": [
        -1.0,
        -1.0,
        -1.0
      ],
      "type": "VEC3"
    },
    {
      "bufferView": 0,
      "byteOffset": 360,
      "componentType": 5125,
      "count": 432,
      "type": "SCALAR"
    },
    {
      "bufferView": 2,
      "byteOffset": 4656,
      "componentType": 5126,
      "count": 162,
      "max": [
        393.7008056640625,
        196.85040283203125,
        157.4803009033203
      ],
      "min": [
        0.0,
        0.0,
        0.0
      ],
      "type": "VEC3"
    },
    {
      "bufferView": 2,
      "byteOffset": 6600,
      "componentType": 5126,
      "count": 162,
      "max": [
        1.0,
        1.0,
        1.0
      ],
      "min": [
        -1.0,
        -1.0,
        -1.0
      ],
      "type": "VEC3"
    },
    {
      "bufferView": 0,
      "byteOffset": 2088,
      "componentType": 5125,
      "count": 432,
      "type": "SCALAR"
    },
    {
      "bufferView": 2,
      "byteOffset": 8544,
      "componentType": 5126,
      "count": 90,
      "max": [
        550.7874145507813,
        268.1101989746094,
        137.79530334472656
      ],
      "min": [
        51.63117980957031,
        5.118110179901123,
        0.0
      ],
      "type": "VEC3"
    },
    {
      "bufferView": 2,
      "byteOffset": 9624,
      "componentType": 5126,
      "count": 90,
      "max": [
        1.0,
        1.0,
        1.0
      ],
      "min": [
        -1.0,
        -1.0,
        -1.0
      ],
      "type": "VEC3"
    },
    {
      "bufferView": 1,
      "byteOffset": 256,
      "componentType": 5126,
      "count": 90,
      "max": [
        22.949480056762695,
        11.171259880065918
      ],
      "min": [
        -22.949480056762695,
        0.0
      ],
      "type": "VEC2"
    },
    {
      "bufferView": 0,
      "byteOffset": 3816,
      "componentType": 5125,
      "count": 156,
      "type": "SCALAR"
    },
    {
      "bufferView": 2,
      "byteOffset": 10704,
      "componentType": 5126,
      "count": 88,
      "max": [
        383.8583068847656,
        187.00790405273438,
        137.79530334472656
      ],
      "min": [
        19.685039520263672,
        9.842519760131836,
        19.685039520263672
      ],
      "type": "VEC3"
    },
    {
      "bufferView": 2,
      "byteOffset": 11760,
      "componentType": 5126,
      "count": 88,
      "max": [
        1.0,
        1.0,
        1.2031859493775e-16
      ],
      "min": [
        -1.0,
        -1.0,
        -1.2031859493775e-16
      ],
      "type": "VEC3"
    },
    {
      "bufferView": 0,
      "byteOffset": 4440,
      "componentType": 5125,
      "count": 156,
      "type": "SCALAR"
    },
    {
      "bufferView": 2,
      "byteOffset": 12816,
      "componentType": 5126,
      "count": 78,
      "max": [
        388.58270263671875,
        191.7322998046875,
        137.79530334472656
      ],
      "min": [
        48.24663162231445,
        5.118110179901123,
        19.685039520263672
      ],
      "type": "VEC3"
    },
    {
      "bufferView": 2,
      "byteOffset": 13752,
      "componentType": 5126,
      "count": 78,
      "max": [
        1.0,
        1.0,
        -0.0
      ],
      "min": [
        -1.0,
        -1.0,
        -0.0
      ],
      "type": "VEC3"
    },
    {
      "bufferView": 1,
      "byteOffset": 976,
      "componentType": 5126,
      "count": 78,
      "max": [
        6.476377964019775,
        2.2965879440307617
      ],
      "min": [
        -6.476377964019775,
        0.32808399200439453
      ],
      "type": "VEC2"
    },
    {
      "bufferView": 0,
      "byteOffset": 5064,
      "componentType": 5125,
      "count": 138,
      "type": "SCALAR"
    }
  ],
  "asset": {
    "extras": {
      "author": "The_Cubest (https://sketchfab.com/The_Cubest)",
      "license": "CC-BY-4.0 (http://creativecommons.org/licenses/by/4.0/)",
      "source": "https://sketchfab.com/3d-models/little-house-0aa4250d691042a2a5000b64a59b245b",
      "title": "LITTLE HOUSE"
    },
    "generator": "Sketchfab-12.67.0",
    "version": "2.0"
  },
  "bufferViews": [
    {
      "buffer": 0,
      "byteLength": 5616,
      "name": "floatBufferViews",
      "target": 34963
    },
    {
      "buffer": 0,
      "byteLength": 1600,
      "byteOffset": 5616,
      "byteStride": 8,
      "name": "floatBufferViews",
      "target": 34962
    },
    {
      "buffer": 0,
      "byteLength": 14688,
      "byteOffset": 7216,
      "byteStride": 12,
      "name": "floatBufferViews",
      "target": 34962
    }
  ],
  "buffers": [
    {
      "byteLength": 21904,
      "uri": "scene.bin"
    }
  ],
  "images": [
    {
      "uri": "textures/material_1_baseColor.jpeg"
    },
    {
      "uri": "textures/material_3_baseColor.jpeg"
    },
    {
      "uri": "textures/material_4_baseColor.jpeg"
    }
  ],
  "materials": [
    {
      "name": "material",
      "pbrMetallicRoughness": {
        "metallicFactor": 0.0,
        "roughnessFactor": 0.6
      }
    },
    {
      "name": "material_0",
      "pbrMetallicRoughness": {
        "baseColorFactor": [
          0.643137,
          0.698039,
          0.733333,
          1.0
        ],
        "metallicFactor": 0.0,
        "roughnessFactor": 0.6
      }
    },
    {
      "name": "material_1",
      "pbrMetallicRoughness": {
        "baseColorTexture": {
          "index": 0
        },
        "metallicFactor": 0.0,
        "roughnessFactor": 0.6
      }
    },
    {
      "alphaMode": "BLEND",
      "name": "material_2",
      "pbrMetallicRoughness": {
        "baseColorFactor": [
          0.501961,
          0.501961,
          0.501961,
          0.501961
        ],
        "metallicFactor": 0.0,
        "roughnessFactor": 0.6
      }
    },
    {
      "name": "material_3",
      "pbrMetallicRoughness": {
        "baseColorTexture": {
          "index": 1
        },
        "metallicFactor": 0.0,
        "roughnessFactor": 0.6
      }
    },
    {
      "name": "material_4",
      "pbrMetallicRoughness": {
        "baseColorTexture": {
          "index": 2
        },
        "metallicFactor": 0.0,
        "roughnessFactor": 0.6
      }
    }
  ],
  "meshes": [
    {
      "name": "Material2",
      "primitives": [
        {
          "attributes": {
            "NORMAL": 1,
            "POSITION": 0,
            "TEXCOORD_0": 2
          },
          "indices": 3,
          "material": 5,
          "mode": 4
        }
      ]
    },
    {
      "name": "Material2",
      "primitives": [
        {
          "attributes": {
            "NORMAL": 5,
            "POSITION": 4
          },
          "indices": 6,
          "material": 0,
          "mode": 4
        }
      ]
    },
    {
      "name": "Material3",
      "primitives": [
        {
          "attributes": {
            "NORMAL": 8,
            "POSITION": 7
          },
          "indices": 9,
          "material": 1,
          "mode": 4
        }
      ]
    },
    {
      "name": "Material2",
      "primitives": [
        {
          "attributes": {
            "NORMAL": 11,
            "POSITION": 10,
            "TEXCOORD_0": 12
          },
          "indices": 13,
          "material": 2,
          "mode": 4
        }
      ]
    },
    {
      "name": "Material2",
      "primitives": [
        {
          "attributes": {
            "NORMAL": 15,
            "POSITION": 14
          },
          "indices": 16,
          "material": 3,
          "mode": 4
        }
      ]
    },
    {
      "name": "Material2",
      "primitives": [
        {
          "attributes": {
            "NORMAL": 18,
            "POSITION": 17,
            "TEXCOORD_0": 19
          },
          "indices": 20,
          "material": 4,
          "mode": 4
        }
      ]
    }
  ],
  "nodes": [
    {
      "children": [
        1
      ],
      "matrix": [
        1.0,
        0.0,
        0.0,
        0.0,
        0.0,
        2.220446049250313e-16,
        -1.0,
        0.0,
        0.0,
        1.0,
        2.220446049250313e-16,
        0.0,
        0.0,
        0.0,
        0.0,
        1.0
      ],
      "name": "Sketchfab_model"
    },
    {
      "children": [
        2
      ],
      "name": "untitled.dae.cleaner.materialmerger.gles"
    },
    {
      "children": [
        3
      ],
      "name": "Collada visual scene group"
    },
    {
      "children": [
        4,
        5,
        6,
        7,
        8,
        9
      ],
      "name": "SketchUp"
    },
    {
      "mesh": 0,
      "name": "Material2"
    },
    {
      "mesh": 1,
      "name": "Material2"
    },
    {
      "mesh": 2,
      "name": "Material3"
    },
    {
      "mesh": 3,
      "name": "Material2"
    },
    {
      "mesh": 4,
      "name": "Material2"
    },
    {
      "mesh": 5,
      "name": "Material2"
    }
  ],
  "samplers": [
    {
      "magFilter": 9729,
      "minFilter": 9987,
      "wrapS": 10497,
      "wrapT": 10497
    }
  ],
  "scene": 0,
  "scenes": [
    {
      "name": "Sketchfab_Scene",
      "nodes": [
        0
      ]
    }
  ],
  "textures": [
    {
      "sampler": 0,
      "source": 0
    },
    {
      "sampler": 0,
      "source": 1
    },
    {
      "sampler": 0,
      "source": 2
    }
  ]
}
