{
  "accessors": [
    {
      "bufferView": 2,
      "componentType": 5126,
      "count": 8,
      "max": [
        0.05708279833197594,
        -0.6637449860572815,
        -0.20859600603580475
      ],
      "min": [
        -0.054047200828790665,
        -0.6666030287742615,
        -0.21633100509643555
      ],
      "type": "VEC3"
    },
    {
      "bufferView": 2,
      "byteOffset": 96,
      "componentType": 5126,
      "count": 8,
      "max": [
        0.5463081002235413,
        0.5670689344406128,
        0.8907181024551392
      ],
      "min": [
        -0.3048171103000641,
        0.27074405550956726,
        0.7926191687583923
      ],
      "type": "VEC3"
    },
    {
      "bufferView": 3,
      "componentType": 5126,
      "count": 8,
      "max": [
        0.928322970867157,
        0.050730399787425995,
        0.5966169834136963,
        1.0
      ],
      "min": [
        0.33017000555992126,
        -0.7731189727783203,
        -0.5330209732055664,
        1.0
      ],
      "type": "VEC4"
    },
    {
      "bufferView": 1,
      "componentType": 5126,
      "count": 8,
      "max": [
        0.5168200135231018,
        0.6631399989128113
      ],
      "min": [
        0.24993999302387238,
        0.5783500075340271
      ],
      "type": "VEC2"
    },
    {
      "bufferView": 0,
      "componentType": 5125,
      "count": 12,
      "type": "SCALAR"
    },
    {
      "bufferView": 2,
      "byteOffset": 192,
      "componentType": 5126,
      "count": 2933,
      "max": [
        0.3306570053100586,
        1.0,
        0.28056201338768005
      ],
      "min": [
        -0.3306570053100586,
        -1.0,
        -0.28056201338768005
      ],
      "type": "VEC3"
    },
    {
      "bufferView": 2,
      "byteOffset": 35388,
      "componentType": 5126,
      "count": 2933,
      "max": [
        0.9993464946746826,
        0.9998553395271301,
        0.9999980926513672
      ],
      "min": [
        -0.9999772310256958,
        -0.9999963641166687,
        -0.9999241232872009
      ],
      "type": "VEC3"
    },
    {
      "bufferView": 3,
      "byteOffset": 128,
      "componentType": 5126,
      "count": 2933,
      "max": [
        1.0,
        0.9977869987487793,
        0.999966025352478,
        1.0
      ],
      "min": [
        -0.9999709725379944,
        -0.9558619856834412,
        -0.999131977558136,
        -1.0
      ],
      "type": "VEC4"
    },
    {
      "bufferView": 1,
      "byteOffset": 64,
      "componentType": 5126,
      "count": 2933,
      "max": [
        0.9980400204658508,
        0.9335899949073792
      ],
      "min": [
        0.0019499999471008778,
        0.0019499999471008778
      ],
      "type": "VEC2"
    },
    {
      "bufferView": 0,
      "byteOffset": 48,
      "componentType": 5125,
      "count": 16290,
      "type": "SCALAR"
    }
  ],
  "asset": {
    "extras": {
      "author": "Sebastian Scharl (https://sketchfab.com/-charly-)",
      "license": "CC-BY-4.0 (http://creativecommons.org/licenses/by/4.0/)",
      "source": "https://sketchfab.com/3d-models/african-mask-3878d75d42ec4986b77ecea293163961",
      "title": "African Mask"
    },
    "generator": "Sketchfab-12.68.0",
    "version": "2.0"
  },
  "bufferViews": [
    {
      "buffer": 0,
      "byteLength": 65208,
      "name": "floatBufferViews",
      "target": 34963
    },
    {
      "buffer": 0,
      "byteLength": 23528,
      "byteOffset": 65208,
      "byteStride": 8,
      "name": "floatBufferViews",
      "target": 34962
    },
    {
      "buffer": 0,
      "byteLength": 70584,
      "byteOffset": 88736,
      "byteStride": 12,
      "name": "floatBufferViews",
      "target": 34962
    },
    {
      "buffer": 0,
      "byteLength": 47056,
      "byteOffset": 159320,
      "byteStride": 16,
      "name": "floatBufferViews",
      "target": 34962
    }
  ],
  "buffers": [
    {
      "byteLength": 206376,
      "uri": "scene.bin"
    }
  ],
  "images": [
    {
      "uri": "textures/DefaultMaterial_baseColor.jpeg"
    },
    {
      "uri": "textures/DefaultMaterial_metallicRoughness.png"
    },
    {
      "uri": "textures/DefaultMaterial_normal.jpeg"
    }
  ],
  "materials": [
    {
      "doubleSided": true,
      "name": "DefaultMaterial",
      "normalTexture": {
        "index": 2
      },
      "occlusionTexture": {
        "index": 1
      },
      "pbrMetallicRoughness": {
        "baseColorTexture": {
          "index": 0
        },
        "metallicFactor": 0.0,
        "metallicRoughnessTexture": {
          "index": 1
        }
      }
    }
  ],
  "meshes": [
    {
      "name": "defaultMaterial",
      "primitives": [
        {
          "attributes": {
            "NORMAL": 1,
            "POSITION": 0,
            "TANGENT": 2,
            "TEXCOORD_0": 3
          },
          "indices": 4,
          "material": 0,
          "mode": 4
        }
      ]
    },
    {
      "name": "defaultMaterial",
      "primitives": [
        {
          "attributes": {
            "NORMAL": 6,
            "POSITION": 5,
            "TANGENT": 7,
            "TEXCOORD_0": 8
          },
          "indices": 9,
          "material": 0,
          "mode": 4
        }
      ]
    }
  ],
  "nodes": [
    {
      "children": [
        1
      ],
      "matrix": [
        -0.9999858736991882,
        8.586845988870616e-17,
        0.00531164463609457,
        0.0,
        0.005311568267643452,
        -0.0053674415685238674,
        0.9999715089797974,
        0.0,
        2.8509941330412403e-05,
        0.9999855756759644,
        0.005367365665734036,
        0.0,
        -5.91803882343811e-07,
        -4.300949818514611e-09,
        1.6041672097344417e-06,
        1.0
      ],
      "name": "Sketchfab_model"
    },
    {
      "children": [
        2,
        4
      ],
      "matrix": [
        1.0,
        0.0,
        0.0,
        0.0,
        0.0,
        -4.371139006309477e-08,
        0.999999999999999,
        0.0,
        0.0,
        -0.999999999999999,
        -4.371139006309477e-08,
        0.0,
        0.0,
        0.0,
        0.0,
        1.0
      ],
      "name": "Collada visual scene group"
    },
    {
      "children": [
        3
      ],
      "name": "g"
    },
    {
      "mesh": 0,
      "name": "defaultMaterial"
    },
    {
      "children": [
        5
      ],
      "name": "g"
    },
    {
      "mesh": 1,
      "name": "defaultMaterial"
    }
  ],
  "samplers": [
    {
      "magFilter": 9729,
      "minFilter": 9987,
      "wrapS": 10497,
      "wrapT": 10497
    }
  ],
  "scene": 0,
  "scenes": [
    {
      "name": "Sketchfab_Scene",
      "nodes": [
        0
      ]
    }
  ],
  "textures": [
    {
      "sampler": 0,
      "source": 0
    },
    {
      "sampler": 0,
      "source": 1
    },
    {
      "sampler": 0,
      "source": 2
    }
  ]
}
